<?xml version="1.0" encoding="UTF-8"?>
<svg id="Layer_2" data-name="Layer 2" xmlns="http://www.w3.org/2000/svg" viewBox="0 0 150.14 150.14">
  <defs>
    <style>
      .cls-1, .cls-2 {
        fill: #fff;
      }

      .cls-3 {
        fill: #f7a7a9;
      }

      .cls-2 {
        stroke: #5c5c5c;
        stroke-linecap: round;
        stroke-linejoin: round;
        stroke-width: 5px;
      }
    </style>
  </defs>
  <g id="Layer_1-2" data-name="Layer 1">
    <rect class="cls-1" width="150.14" height="150.14"/>
    <g>
      <rect class="cls-2" x="26.25" y="105.46" width="97.65" height="9.78" rx="4.89" ry="4.89"/>
      <circle class="cls-2" cx="75.07" cy="50.95" r="16.05"/>
      <path class="cls-2" d="M55.04,64.47s-12.65,8.61-11.09,24.46,9.05,14.67,9.05,14.67c0,0,10.71,4.11,14.23-12.72,3.52-16.83,4.3-26.41,4.3-26.41,0,0,1.17-4.63-2.93-5.48s-6.65,10.43-6.65,10.43l-7.57,22.17-2.87-7.3"/>
      <path class="cls-2" d="M94.56,64.47s12.65,8.61,11.09,24.46c-1.57,15.85-9.05,14.67-9.05,14.67,0,0-10.71,4.11-14.23-12.72-3.52-16.83-4.3-26.41-4.3-26.41,0,0-1.17-4.63,2.93-5.48s6.65,10.43,6.65,10.43l7.57,22.17,2.87-7.3"/>
    </g>
    <path class="cls-3" d="M105.78,53.78c.07,.64-9.04-4.51-5.11-8.09,2.78-2.53,4.96,2.16,5.17,1.73,.04,.07,1.83-3.52,4.42-1.99,3.79,2.25-3.38,8.95-4.47,8.35Z"/>
  </g>
</svg>