<?xml version="1.0" encoding="UTF-8"?>
<svg id="Layer_2" data-name="Layer 2" xmlns="http://www.w3.org/2000/svg" viewBox="0 0 150.14 150.14">
  <defs>
    <style>
      .cls-1 {
        fill: #fff;
      }

      .cls-2 {
        fill: #fbfadc;
        stroke: #5c5c5c;
        stroke-linecap: round;
        stroke-linejoin: round;
        stroke-width: 5px;
      }
    </style>
  </defs>
  <g id="Layer_1-2" data-name="Layer 1">
    <rect class="cls-1" width="150.14" height="150.14"/>
    <g>
      <path class="cls-2" d="M100.47,53.39l29.59-1.34s5.51-.34,5.74,8.84-1.38,23.07-1.38,23.07c0,0-2.28,13.28-19.49,14.12-17.21,.84-18.61-18.12-18.61-18.12l-.91-19.98s-1.1-6.29,5.07-6.58Z"/>
      <path class="cls-2" d="M59.97,53.39l29.59-1.34s5.51-.34,5.74,8.84-1.38,23.07-1.38,23.07c0,0-2.28,13.28-19.49,14.12-17.21,.84-18.61-18.12-18.61-18.12l-.91-19.98s-1.1-6.29,5.07-6.58Z"/>
      <path class="cls-2" d="M19.48,53.39l29.59-1.34s5.51-.34,5.74,8.84-1.38,23.07-1.38,23.07c0,0-2.28,13.28-19.49,14.12-17.21,.84-18.61-18.12-18.61-18.12l-.91-19.98s-1.1-6.29,5.07-6.58Z"/>
    </g>
  </g>
</svg>