<?xml version="1.0" encoding="UTF-8"?>
<svg id="Layer_2" data-name="Layer 2" xmlns="http://www.w3.org/2000/svg" viewBox="0 0 150.14 150.14">
  <defs>
    <style>
      .cls-1, .cls-2 {
        fill: #fff;
      }

      .cls-2 {
        stroke: #5c5c5c;
        stroke-linecap: round;
        stroke-linejoin: round;
        stroke-width: 5px;
      }
    </style>
  </defs>
  <g id="Layer_1-2" data-name="Layer 1">
    <rect class="cls-1" width="150.14" height="150.14"/>
    <g>
      <path class="cls-2" d="M97.52,55.6l29.31-4.28s5.45-.89,6.59,8.22c1.18,9.47,.92,23.09,.92,23.09,0,0-.95,13.44-17.99,15.99-17.04,2.54-20.32-16.18-20.32-16.18l-2.89-19.79s-1.72-6.15,4.39-7.05Z"/>
      <path class="cls-2" d="M67.07,52.53l28.57,7.83s5.35,1.37,2.74,10.17c-2.71,9.15-8.41,21.52-8.41,21.52,0,0-6.26,11.93-22.89,7.43s-12.13-22.97-12.13-22.97l5.28-19.29s.89-6.33,6.85-4.7Z"/>
      <path class="cls-2" d="M18.61,64.97l25.63-14.84s4.73-2.85,9.17,5.2,9.41,21.1,9.41,21.1c0,0,4.1,12.84-10.78,21.52s-24.87-7.5-24.87-7.5l-10.02-17.31s-3.88-5.08,1.47-8.17Z"/>
    </g>
  </g>
</svg>