<?xml version="1.0" encoding="UTF-8"?>
<svg id="Layer_2" data-name="Layer 2" xmlns="http://www.w3.org/2000/svg" viewBox="0 0 150.14 150.14">
  <defs>
    <style>
      .cls-1 {
        fill: #fff;
      }

      .cls-2 {
        fill: #5c5c5c;
      }

      .cls-3 {
        fill: none;
        stroke: #5c5c5c;
        stroke-linecap: round;
        stroke-miterlimit: 10;
        stroke-width: 5px;
      }
    </style>
  </defs>
  <g id="Layer_1-2" data-name="Layer 1">
    <rect class="cls-1" width="150.14" height="150.14"/>
    <g>
      <path class="cls-3" d="M116.32,63.81s-13.36-1.36-18.64-9.96c-4.12-6.71-9.55-6.29-11.74-5.77-.77,.18-1.57,.14-2.32-.09-3.28-1.01-11.03-3.67-13.35-8.02-1.2-2.25,1.15-4.74,3.45-3.64l1.73,.83s4.03-7.52,19.48-5.53,22.3,16.07,21.62,29.08c-.68,13.01-6.16,35.41-6.16,35.41,0,0-8.22,23.03-15.65,22.67s-6.46-10.34-6.46-10.34l-.04-7.63s-2.5-10.76-13.65-10.76-12.72,10.17-12.72,10.17v11.4s-.05,6.26-3.47,7.17-17.07-5.26-22.94-36.17,1.96-51.85,20.74-50.97,23.09,10.86,30.62,10.08"/>
      <path class="cls-2" d="M97.41,36c-2.51-.09-4.81,1.75-5.25,4.23-.23,1.32,.05,2.83,1.31,3.56s2.78,.35,3.97-.34c2.15-1.26,3.25-3.9,2.66-6.3s-2.74-4.08-5.22-4.47c-2.62-.41-5.29-.49-7.93-.57s-5.13-.08-7.7,.88c-1.19,.44-2.38,.89-3.57,1.33s-2.71,.79-3.65,1.76c-.99,1.02-1.15,2.65-.38,3.83s2.42,1.53,3.74,1.83c5.36,1.19,11.04,.38,15.8-2.39,1.17-.68,1.58-2.26,.9-3.42-.74-1.27-2.18-1.45-3.42-.9-1.94,.87-4.39,.31-6.43,.93-2.32,.7-4.28,2.32-6.25,3.67s-1.39,3.73,.6,4.57c2.35,.99,4.85,1.32,7.35,1.68,1.18,.17,2.36,.35,3.53,.61,1.38,.32,2.75,.78,4.18,.81,2.5,.04,4.77-1.41,5.71-3.72s.2-5.33-2.45-6.02c-1.13-.3-2.43-.24-3.59-.24-1.31,0-2.81-.08-4.01,.54-2.61,1.36-2.36,5.04,.14,6.35s4.87-.25,6.33-2.13c.49-.63,.93-1.42,1.58-1.89,.73-.52,1.78-.68,2.65-.78,1.01-.12,2.17-.17,3.13,.24,1.02,.43,1.89,1.28,2.73,1.98,1.9,1.59,3.83,3.2,5.54,5,1.54,1.61,2.54,3.38,2.97,5.57,.21,1.06,.25,2.14,.27,3.21,0,.58,0,1.16,0,1.74,0,.29,0,.58-.02,.87-.02,.74-.22,.52,.84,0,1.2-.59,.97-.41,.19-.73-.3-.12-.59-.23-.9-.33-.54-.16-1.1-.27-1.65-.4-1.1-.25-2.07-.6-3.05-1.15-2-1.13-3.86-2.51-5.86-3.65-2.12-1.21-8.93-4.61-5.41-7.61,.89-.76,2.14-1.31,3.25-1.65,.13-.04,.26-.07,.37-.13h.34c-.35-1.54-.72-2.04-1.11-1.51-.41,.2-.87,.75-1.23,1.04-2.2,1.72-5.53,3.72-3.82,7,1.53,2.91,5.21,2.65,7.42,.75,.93-.8,1.54-1.88,2.39-2.76,.36-.37,.65-.53,1.12-.71-.13,.05-.44-.65-.09,.08l-.34-1.26c.49-.77,.52-.92,.09-.44-.11,.13-.24,.22-.4,.29-.37,.24-.73,.36-1.15,.47-1.17,.32-2.31,.57-3.25,1.39-1.82,1.58-2.09,4.33-.21,5.99,1.97,1.74,4.6,.96,6.52-.38,.85-.59,1.65-1.37,2.61-1.78,.39-.17,.48-.15,.88-.16,.17,0-.07-.41,0,.03v-1.33l-.06,.2,1.15-1.49c-.75,.4-1.91,.55-2.73,.79s-1.66,.48-2.4,.9c-1.73,.98-2.73,3.05-2.09,4.98,.71,2.13,3.1,2.84,5.07,2.11,.76-.28,1.53-.74,2.11-1.3,.56-.53-.07,.03-.5-.36-.34-.31-.35-.9,.05-1.04-1.27,.46-2.12,1.7-1.75,3.08,.34,1.22,1.8,2.21,3.08,1.75,2.99-1.1,4.63-4.75,2.16-7.32-1.07-1.11-2.66-1.49-4.13-1.09-.76,.2-1.38,.64-1.99,1.1-.07,.05-.6,.37-.64,.46-.05,.11-.04-.05,.05-.02l1.1,.64c.27,.48,.25,.93-.06,1.37,.05-.03,.09-.06,.14-.09,.29,.09,1.28-.39,1.57-.48,1.05-.31,2.23-.51,3.2-1.02,2.48-1.29,1.64-4.36-.21-5.78s-4.23-1.31-6.28-.35c-.91,.42-1.68,1.04-2.48,1.62-.34,.24-1.24,.61-1.45,.94-.07,.03-.14,.05-.22,.05,.74,.67,.97,.73,.67,.2l.34,1.26c-.13-.96,.04,.44-.2,.28,.01,0,.77-.2,.52-.14,.5-.13,1.01-.23,1.5-.41,1.27-.46,2.48-1.19,3.38-2.2,2.19-2.45,.41-5.8-2.57-6.38-2.82-.55-5.03,1.17-6.67,3.26-.38,.48-.78,.92-1.17,1.39-.45,.53-.37-.14,.2,.41l.27,.67c-.32,.69-.34,.9-.05,.63,.23-.04,.51-.4,.71-.56,.72-.56,1.44-1.12,2.15-1.68,.97-.76,1.86-1.52,2.31-2.71,.57-1.49,.32-3.2-.87-4.33-2.18-2.07-5.53-.56-7.76,.59-2.51,1.3-4.6,3.59-4.87,6.5-.24,2.63,1.36,5,3.22,6.71s4.06,2.92,6.22,4.17,4.17,2.86,6.44,3.92c1.23,.58,2.46,.92,3.77,1.23s2.47,1.08,3.77,1.04c3.44-.13,3.48-3.98,3.48-6.5,0-2.66-.24-5.37-1.26-7.85s-2.8-4.58-4.77-6.42-4.18-3.79-6.43-5.47-4.85-2.19-7.61-1.85c-1.57,.19-3.12,.5-4.51,1.28-1.32,.74-2.11,1.84-3.01,3.01-.21,.27-.48,.53-.67,.8l-.28,.16,.28-.07c-1.22,2.93-.46,2.7,.56,2.69,.76,0,1.52-.03,2.28-.01,.27,0,.89,.15,1.14,.04,.23,.03,.3,.03,.21,0l-.77-.68c-.11-.02-.17,.24-.35,.39-.34,.28-.81,.25-1.25,.18-1.4-.19-2.76-.71-4.16-.95-3.08-.52-6.21-.73-9.12-1.95l.6,4.57c1.77-1.22,3.68-2.99,5.85-3.36,2.37-.4,4.57-.23,6.83-1.25l-2.52-4.32c-2.04,1.19-4.32,1.98-6.68,2.18-2.11,.18-4.95,.22-6.91-.72l.9,.9-.15-.24,.34,1.26v-.29c-.11,.42-.22,.84-.34,1.26-.76,.47-.81,.56-.15,.27,.3-.11,.59-.22,.89-.33,.59-.22,1.19-.44,1.78-.66,1.01-.38,2.02-.77,3.04-1.13,2.08-.74,4.35-.45,6.52-.37,1.12,.04,2.24,.09,3.35,.17,1.04,.07,2.23,.04,3.23,.38,.36,.12,.68,.23,.78,.65,.07,.31-.02,.3-.05,.51-.11,.61-.85,.03,.18,.39l1.49,1.15c.89,1.36-.45,.59,.52,.63,3.22,.12,3.21-4.88,0-5h0Z"/>
    </g>
  </g>
</svg>