<?xml version="1.0" encoding="UTF-8"?>
<svg id="Layer_2" data-name="Layer 2" xmlns="http://www.w3.org/2000/svg" viewBox="0 0 150.14 150.14">
  <defs>
    <style>
      .cls-1 {
        fill: #fff;
      }

      .cls-2 {
        fill: none;
        stroke: #5c5c5c;
        stroke-linecap: round;
        stroke-linejoin: round;
        stroke-width: 5px;
      }
    </style>
  </defs>
  <g id="Layer_1-2" data-name="Layer 1">
    <rect class="cls-1" width="150.14" height="150.14"/>
    <g>
      <path class="cls-2" d="M118.99,87.27l.91-15.39s1.96-22.17-16.3-28.7-26.09,5.22-26.09,5.22"/>
      <path class="cls-2" d="M33.95,90.92s-3.87-28.83,.3-32.74l4.43,8.48s.26-5.87,5.61-10.7,10.3-6.26,10.3-6.26l-8.48-4.43s2.61-4.3,17.74-3.13,14.74,12.78,23.87,11.48"/>
      <path class="cls-2" d="M25.84,89.81s.65,3.85,4.17,3.85,3.85-5.48,9.39-5.48,2.87,5.48,6.39,5.48,3.33-5.48,9.39-5.48,3.78,5.48,7.37,5.48,4.96-5.48,9.07-5.48,3.72,5.48,7.53,5.48,3.75-5.48,8.58-5.48,3.65,5.48,6.88,5.48,4.5-5.48,9.39-5.48,4.01,5.48,7.04,5.48,3.76-5.48,8.92-5.48,4.28,2.5,4.28,2.5"/>
      <path class="cls-2" d="M25.84,105.08s.65,3.85,4.17,3.85,3.85-5.48,9.39-5.48,2.87,5.48,6.39,5.48,3.33-5.48,9.39-5.48,3.78,5.48,7.37,5.48,4.96-5.48,9.07-5.48,3.72,5.48,7.53,5.48,3.75-5.48,8.58-5.48,3.65,5.48,6.88,5.48,4.5-5.48,9.39-5.48,4.01,5.48,7.04,5.48,3.76-5.48,8.92-5.48,4.28,2.5,4.28,2.5"/>
    </g>
  </g>
</svg>